<?xml version="1.0" encoding="UTF-8" standalone="no"?>
<!-- Uploaded to: SVG Repo, www.svgrepo.com, Generator: SVG Repo Mixer Tools -->

<svg
   width="659.99988"
   height="450"
   viewBox="0 0 19.799996 13.5"
   fill="none"
   version="1.1"
   id="svg1"
   sodipodi:docname="eye.svg"
   xml:space="preserve"
   inkscape:version="1.3 (0e150ed6c4, 2023-07-21)"
   inkscape:export-filename="refocus-logo.svg"
   inkscape:export-xdpi="96"
   inkscape:export-ydpi="96"
   xmlns:inkscape="http://www.inkscape.org/namespaces/inkscape"
   xmlns:sodipodi="http://sodipodi.sourceforge.net/DTD/sodipodi-0.dtd"
   xmlns:xlink="http://www.w3.org/1999/xlink"
   xmlns="http://www.w3.org/2000/svg"
   xmlns:svg="http://www.w3.org/2000/svg"><defs
     id="defs1"><linearGradient
       id="linearGradient2"
       inkscape:collect="always"><stop
         style="stop-color:#40c9ff;stop-opacity:1;"
         offset="0"
         id="stop2" /><stop
         style="stop-color:#e81cff;stop-opacity:1;"
         offset="1"
         id="stop3" /></linearGradient><linearGradient
       inkscape:collect="always"
       xlink:href="#linearGradient2"
       id="linearGradient3"
       x1="3.8768375"
       y1="7.8063593"
       x2="20.912909"
       y2="17.047482"
       gradientUnits="userSpaceOnUse" /><linearGradient
       inkscape:collect="always"
       xlink:href="#linearGradient2"
       id="linearGradient4"
       gradientUnits="userSpaceOnUse"
       x1="3.8768375"
       y1="7.8063593"
       x2="20.912909"
       y2="17.047482" /><linearGradient
       inkscape:collect="always"
       xlink:href="#linearGradient2"
       id="linearGradient5"
       gradientUnits="userSpaceOnUse"
       x1="3.8768375"
       y1="7.8063593"
       x2="20.912909"
       y2="17.047482" /><linearGradient
       inkscape:collect="always"
       xlink:href="#linearGradient2"
       id="linearGradient6"
       gradientUnits="userSpaceOnUse"
       x1="3.8768375"
       y1="7.8063593"
       x2="20.912909"
       y2="17.047482" /><linearGradient
       inkscape:collect="always"
       xlink:href="#linearGradient2"
       id="linearGradient7"
       gradientUnits="userSpaceOnUse"
       x1="3.8768375"
       y1="7.8063593"
       x2="20.912909"
       y2="17.047482" /></defs><sodipodi:namedview
     id="namedview1"
     pagecolor="#ffffff"
     bordercolor="#000000"
     borderopacity="0.25"
     inkscape:showpageshadow="2"
     inkscape:pageopacity="0.0"
     inkscape:pagecheckerboard="0"
     inkscape:deskcolor="#d1d1d1"
     inkscape:zoom="0.99875"
     inkscape:cx="400"
     inkscape:cy="400"
     inkscape:window-width="1920"
     inkscape:window-height="1011"
     inkscape:window-x="0"
     inkscape:window-y="0"
     inkscape:window-maximized="1"
     inkscape:current-layer="svg1" /><g
     id="g2"
     transform="translate(-2.1009853,-5.25)"
     style="fill:url(#linearGradient3)"><path
       fill-rule="evenodd"
       clip-rule="evenodd"
       d="m 11.9966,5.25 c -2.7745165,0 -5.2036282,1.6612075 -6.8727742,3.1983153 -0.8479744,0.780899 -1.5319025,1.5594767 -2.0037894,2.1422767 -0.2364035,0.291899 -0.4207819,0.5362 -0.5471144,0.709099 -0.063196,0.0865 -0.1119512,0.1552 -0.1455045,0.2032 -0.016782,0.024 -0.029773,0.0428 -0.038874,0.05611 l -0.010731,0.0157 -0.00316,0.0047 -0.2736672,0.4338 0.2726471,0.4059 0.00102,0.0015 0.00316,0.0047 0.010731,0.0157 c 0.0091,0.0133 0.022092,0.0321 0.038874,0.05611 0.033553,0.048 0.082308,0.1167 0.1455045,0.2032 0.1263325,0.1729 0.3107109,0.4172 0.5471144,0.709099 0.4718869,0.5828 1.155815,1.361398 2.0037894,2.142297 C 6.7929717,17.088803 9.2220834,18.75 11.9966,18.75 c 2.774476,0 5.203517,-1.661197 6.872683,-3.198295 0.847985,-0.780899 1.531953,-1.559497 2.0038,-2.142297 0.236423,-0.291899 0.420742,-0.536199 0.547154,-0.709099 0.06311,-0.0865 0.111911,-0.1552 0.145415,-0.2032 0.0168,-0.024 0.0298,-0.0428 0.0389,-0.05611 l 0.0107,-0.0157 0.0032,-0.0047 0.0014,-0.002 0.281128,-0.418608 -0.281528,-0.4191 -10e-4,-0.0015 -0.0032,-0.0047 -0.0107,-0.0157 c -0.0091,-0.0133 -0.0221,-0.0321 -0.0389,-0.05611 -0.0335,-0.048 -0.08231,-0.116699 -0.145415,-0.2032 -0.126412,-0.172899 -0.310731,-0.4172 -0.547154,-0.709099 -0.471847,-0.5828 -1.155815,-1.3613777 -2.0038,-2.1422767 C 17.200117,6.9112075 14.771076,5.25 11.9966,5.25 Z M 4.2859524,12.465589 C 4.1425581,12.28849 4.020486,12.13109 3.9214461,11.999991 c 0.09904,-0.1311 0.221112,-0.288501 0.3645063,-0.4656 0.4390637,-0.5422 1.0732768,-1.263598 1.8541545,-1.9827173 C 7.7286349,8.0887859 9.799971,6.7499978 11.9966,6.7499978 c 2.196518,0 4.267924,1.3387881 5.856382,2.8016759 0.780878,0.7191193 1.415141,1.4405173 1.854185,1.9827173 0.143414,0.177099 0.265426,0.3345 0.364536,0.4656 -0.09911,0.131099 -0.221122,0.288499 -0.364536,0.465598 -0.439044,0.5422 -1.073307,1.263599 -1.854185,1.982697 -1.588458,1.462898 -3.659864,2.801697 -5.856382,2.801697 -2.196629,0 -4.2679651,-1.338799 -5.8564931,-2.801697 C 5.3592292,13.729188 4.7250161,13.007789 4.2859524,12.465589 Z"
       fill="#080341"
       id="path1"
       sodipodi:nodetypes="sccccccccccccccccscccccccccccccccccsccccscccccscc"
       style="fill:url(#linearGradient4);stroke-width:1.00005" /><path
       d="m 13.125978,12 c 0,0.621299 -0.503654,1.125 -1.125007,1.125 -0.621304,0 -1.124983,-0.503701 -1.124983,-1.125 0,-0.6213 0.503679,-1.125 1.124983,-1.125 0.621353,0 1.125007,0.5037 1.125007,1.125 z m 0.750005,0 c 0,1.03555 -0.839455,1.875 -1.875012,1.875 -1.035517,0 -1.874988,-0.83945 -1.874988,-1.875 0,-1.035535 0.839471,-1.875 1.874988,-1.875 1.035557,0 1.875012,0.839465 1.875012,1.875 z"
       style="clip-rule:evenodd;fill:url(#linearGradient5);fill-rule:evenodd;stroke-width:0.500003"
       id="eye-ball" /><g
       style="fill:url(#linearGradient7);fill-opacity:1"
       id="g1"
       transform="matrix(0.37499998,0,0,0.37491821,7.5009831,7.5018549)"><path
         d="M 1,12 A 11,11 0 0 1 17.882,2.7 L 19.293,1.29 A 1,1 0 0 1 21,2 V 6 A 1,1 0 0 1 20,7 H 16 A 1,1 0 0 1 15.293,5.293 L 16.421,4.165 A 8.994,8.994 0 0 0 3,12 1,1 0 0 1 1,12 Z m 21,-1 a 1,1 0 0 0 -1,1 9.01,9.01 0 0 1 -9,9 8.9,8.9 0 0 1 -4.42,-1.166 L 8.707,18.707 A 1,1 0 0 0 8,17 H 4 a 1,1 0 0 0 -1,1 v 4 A 1,1 0 0 0 3.617,22.924 0.987,0.987 0 0 0 4,23 1,1 0 0 0 4.707,22.707 L 6.118,21.3 A 10.891,10.891 0 0 0 12,23 11.013,11.013 0 0 0 23,12 1,1 0 0 0 22,11 Z"
         id="path1-2"
         style="fill:url(#linearGradient6);fill-opacity:1" /></g></g></svg>
