<?xml version="1.0" encoding="UTF-8" standalone="no"?>
<!-- Created with Inkscape (http://www.inkscape.org/) -->

<svg
   width="90"
   height="84.795273"
   viewBox="0 0 23.8125 22.435416"
   version="1.1"
   id="svg1"
   inkscape:export-filename="refocus-logo.svg"
   inkscape:export-xdpi="96"
   inkscape:export-ydpi="96"
   sodipodi:docname="refocus-logo.svg"
   xmlns:inkscape="http://www.inkscape.org/namespaces/inkscape"
   xmlns:sodipodi="http://sodipodi.sourceforge.net/DTD/sodipodi-0.dtd"
   xmlns="http://www.w3.org/2000/svg"
   xmlns:svg="http://www.w3.org/2000/svg">
  <sodipodi:namedview
     id="namedview1"
     pagecolor="#ffffff"
     bordercolor="#000000"
     borderopacity="0.25"
     inkscape:showpageshadow="2"
     inkscape:pageopacity="0.0"
     inkscape:pagecheckerboard="0"
     inkscape:deskcolor="#d1d1d1"
     inkscape:document-units="mm"
     inkscape:zoom="11.765901"
     inkscape:cx="24.859975"
     inkscape:cy="23.160147"
     inkscape:window-width="1920"
     inkscape:window-height="1011"
     inkscape:window-x="0"
     inkscape:window-y="0"
     inkscape:window-maximized="1"
     inkscape:current-layer="layer1" />
  <defs
     id="defs1" />
  <g
     inkscape:label="Layer 1"
     inkscape:groupmode="layer"
     id="layer1"
     style="display:inline"
     transform="translate(-1.3229168,-2.6999998)">
    <g
       id="g4">
      <path
         id="path2"
         style="display:inline;fill:#00cdf1;fill-opacity:1;stroke-width:0.332588"
         d="M 5.4482463,4.2193807 A 11.90625,11.90625 0 0 0 1.3229167,13.229167 11.90625,11.90625 0 0 0 13.229167,25.135417 11.90625,11.90625 0 0 0 25.135417,13.229167 11.90625,11.90625 0 0 0 21.109823,4.3077474 l -3.089734,3.0897339 a 7.9375002,7.9375001 0 0 1 0.244429,0.190686 7.9375002,7.9375001 0 0 1 0.295073,0.2542481 7.9375002,7.9375001 0 0 1 0.282153,0.2687174 7.9375002,7.9375001 0 0 1 0.268717,0.2821533 7.9375002,7.9375001 0 0 1 0.254765,0.2945557 7.9375002,7.9375001 0 0 1 0.239262,0.3079915 7.9375002,7.9375001 0 0 1 0.224793,0.3178101 7.9375002,7.9375001 0 0 1 0.208256,0.3291789 7.9375002,7.9375001 0 0 1 0.192236,0.3395141 7.9375002,7.9375001 0 0 1 0.174666,0.3477826 7.9375002,7.9375001 0 0 1 0.15813,0.35605 7.9375002,7.9375001 0 0 1 0.140043,0.363286 7.9375002,7.9375001 0 0 1 0.122473,0.370003 7.9375002,7.9375001 0 0 1 0.103353,0.376204 7.9375002,7.9375001 0 0 1 0.08578,0.379822 7.9375002,7.9375001 0 0 1 0.06615,0.383956 7.9375002,7.9375001 0 0 1 0.04806,0.38654 7.9375002,7.9375001 0 0 1 0.02894,0.388607 7.9375002,7.9375001 0 0 1 0.0093,0.38964 7.9375002,7.9375001 0 0 1 -0.08062,1.12913 7.9375002,7.9375001 0 0 1 -0.240812,1.106909 7.9375002,7.9375001 0 0 1 -0.395841,1.060917 7.9375002,7.9375001 0 0 1 -0.542603,0.994255 7.9375002,7.9375001 0 0 1 -0.678511,0.906404 7.9375002,7.9375001 0 0 1 -0.801502,0.800468 7.9375002,7.9375001 0 0 1 -0.906404,0.679029 7.9375002,7.9375001 0 0 1 -0.994255,0.542602 7.9375002,7.9375001 0 0 1 -1.060917,0.395842 7.9375002,7.9375001 0 0 1 -1.106393,0.240295 7.9375002,7.9375001 0 0 1 -1.129646,0.08165 A 7.9375002,7.9375001 0 0 1 12.09952,21.580078 7.9375002,7.9375001 0 0 1 10.993127,21.339783 7.9375002,7.9375001 0 0 1 9.9322103,20.943941 7.9375002,7.9375001 0 0 1 8.9379557,20.401339 7.9375002,7.9375001 0 0 1 8.0315511,19.72231 7.9375002,7.9375001 0 0 1 7.2300496,18.921842 7.9375002,7.9375001 0 0 1 6.5515381,18.015438 7.9375002,7.9375001 0 0 1 6.0089355,17.021183 7.9375002,7.9375001 0 0 1 5.6130941,15.960266 7.9375002,7.9375001 0 0 1 5.3722819,14.853357 7.9375002,7.9375001 0 0 1 5.2916667,13.724227 7.9375002,7.9375001 0 0 1 5.3722819,12.594063 7.9375002,7.9375001 0 0 1 5.6130941,11.487154 7.9375002,7.9375001 0 0 1 6.0089355,10.426237 7.9375002,7.9375001 0 0 1 6.5515381,9.4319824 7.9375002,7.9375001 0 0 1 7.2300496,8.5255778 7.9375002,7.9375001 0 0 1 8.0315511,7.7251099 7.9375002,7.9375001 0 0 1 8.5591675,7.3303019 Z" />
      <path
         id="rect3"
         style="display:inline;fill:#00cdf1;fill-opacity:1;stroke-width:0.20749"
         d="M 10.394947,9.2949463 V 2.7 H 3.8 Z" />
    </g>
    <circle
       style="fill:#ff4949;fill-opacity:1;stroke-width:0.207;stroke-dasharray:none"
       id="path4"
       cx="13.229167"
       cy="14.342246"
       r="3.550029" />
  </g>
</svg>
